<?xml version="1.0" encoding="utf-8"?>
<!-- Generator: Adobe Illustrator 22.0.1, SVG Export Plug-In . SVG Version: 6.00 Build 0)  -->
<svg version="1.1" id="Layer_1" xmlns="http://www.w3.org/2000/svg" xmlns:xlink="http://www.w3.org/1999/xlink" x="0px" y="0px"
	 viewBox="0 0 280 65.1" style="enable-background:new 0 0 280 65.1;" xml:space="preserve">
<style type="text/css">
	.st0{fill:#19A35C;}
	.st1{fill:#02465D;}
	.st2{fill:#57686E;}
	.st3{fill:#E2AF25;}
	.st4{fill:#E27625;}
	.st5{fill:#04465D;}
	.st6{fill-rule:evenodd;clip-rule:evenodd;fill:#13A15B;}
	.st7{opacity:0.7;fill:#FFFFFF;}
	.st8{fill-rule:evenodd;clip-rule:evenodd;fill:#04465D;}
</style>
<g>
	<g>
		<path class="st0" d="M81,16.1v5.6h-3.2l-0.2-2.3h-3.9v14.8l2.2,0.4V37h-8.7v-2.5l2.2-0.4V19.3h-3.8l-0.2,2.3h-3.2v-5.6H81z"/>
		<path class="st0" d="M79.5,34.5l1.5-0.2l6.4-18.2h4.3L98,34.3l1.5,0.2V37h-7.1v-2.5l1.5-0.3l-0.9-2.9h-6.8l-0.9,2.9l1.5,0.3V37
			h-7.1V34.5z M87.1,28.3h4.8l-2.4-7.4h-0.1L87.1,28.3z"/>
		<path class="st0" d="M110.3,16.1c2.4,0,4.2,0.5,5.6,1.6c1.4,1.1,2,2.6,2,4.5c0,1.1-0.3,2-0.8,2.8c-0.6,0.8-1.4,1.4-2.5,1.9
			c1.2,0.4,2.1,1,2.7,1.8c0.5,0.8,0.8,1.9,0.8,3.2v1.1c0,0.5,0.1,0.8,0.3,1.1c0.2,0.3,0.5,0.4,0.9,0.5l0.5,0.1V37h-2.2
			c-1.4,0-2.3-0.4-2.9-1.1c-0.6-0.7-0.8-1.7-0.8-2.9v-1.2c0-1-0.3-1.8-0.8-2.4c-0.5-0.6-1.3-0.9-2.3-0.9h-3.4v5.5l2.2,0.4V37h-8.7
			v-2.5l2.2-0.4V19l-2.2-0.4v-2.5h2.2H110.3z M107.4,25.3h2.9c1.2,0,2.1-0.2,2.6-0.7c0.6-0.5,0.9-1.2,0.9-2.2c0-0.9-0.3-1.7-0.9-2.3
			c-0.6-0.6-1.4-0.8-2.6-0.8h-3V25.3z"/>
		<path class="st0" d="M138.6,34.7c-0.7,0.7-1.7,1.3-3,1.8c-1.3,0.5-3,0.8-5,0.8c-2.8,0-5.1-0.9-6.9-2.8c-1.8-1.9-2.7-4.4-2.7-7.4
			v-0.7c0-3.1,0.9-5.7,2.6-7.7c1.8-2,4-3,6.9-3c1.6,0,3.1,0.3,4.5,0.8c1.4,0.5,2.5,1.2,3.4,2.1v4.2h-3.1l-0.6-2.8
			c-0.4-0.3-0.9-0.6-1.5-0.8c-0.6-0.2-1.4-0.3-2.2-0.3c-1.8,0-3.3,0.7-4.3,2c-1,1.4-1.5,3.1-1.5,5.3v0.7c0,2.1,0.5,3.8,1.5,5.1
			c1,1.3,2.4,1.9,4.3,1.9c0.8,0,1.5-0.1,2.1-0.2c0.5-0.1,0.9-0.3,1.2-0.5v-3.6l-3-0.2v-3h7.2V34.7z"/>
		<path class="st0" d="M154.2,27.8h-7.1v6h6.8l0.2-2.5h3.2V37h-16.6v-2.5l2.2-0.4V19l-2.2-0.4v-2.5h2.2h14.3v5.7H154l-0.2-2.5h-6.7
			v5.3h7.1V27.8z"/>
		<path class="st0" d="M178.3,16.1v5.6h-3.2l-0.2-2.3H171v14.8l2.2,0.4V37h-8.7v-2.5l2.2-0.4V19.3H163l-0.2,2.3h-3.2v-5.6H178.3z"/>
		<path class="st1" d="M195.1,22.3h-2.1l-0.5-3c-0.4-0.4-1-0.7-1.7-0.9c-0.7-0.2-1.6-0.4-2.5-0.4c-1.5,0-2.7,0.3-3.5,1
			c-0.8,0.6-1.2,1.5-1.2,2.5c0,0.9,0.4,1.7,1.2,2.3c0.8,0.6,2.1,1.1,4,1.6c2.2,0.5,3.9,1.4,5,2.4c1.1,1.1,1.7,2.4,1.7,4
			c0,1.7-0.7,3-2.1,4.1c-1.4,1-3.2,1.5-5.4,1.5c-1.6,0-3-0.3-4.3-0.8c-1.3-0.5-2.3-1.2-3.1-2.1v-3.9h2.1l0.5,3
			c0.5,0.5,1.2,0.8,2,1.1c0.8,0.3,1.7,0.4,2.7,0.4c1.4,0,2.6-0.3,3.4-0.9c0.8-0.6,1.2-1.4,1.2-2.5c0-1-0.4-1.8-1.1-2.4
			c-0.7-0.6-2-1.2-3.8-1.6c-2.2-0.5-4-1.3-5.2-2.3c-1.2-1-1.9-2.3-1.9-3.9c0-1.6,0.7-3,2.1-4.1c1.4-1.1,3.2-1.6,5.4-1.6
			c1.5,0,2.8,0.3,4,0.8c1.2,0.5,2.2,1.1,2.9,1.8V22.3z"/>
		<path class="st1" d="M214.8,16.1v4.6h-2.4l-0.2-2.4h-4.7v16.5l2.3,0.4V37h-7.5v-1.8l2.3-0.4V18.3H200l-0.2,2.4h-2.4v-4.6H214.8z"
			/>
		<path class="st1" d="M223.7,16.1v1.8l-2.3,0.4v12c0,1.6,0.5,2.8,1.4,3.6c0.9,0.8,2.1,1.2,3.6,1.2c1.6,0,2.8-0.4,3.8-1.2
			c1-0.8,1.4-2,1.4-3.6v-12l-2.3-0.4v-1.8h5.2h2.3v1.8l-2.3,0.4v12c0,2.3-0.7,4-2.2,5.2c-1.5,1.2-3.4,1.8-5.8,1.8
			c-2.3,0-4.2-0.6-5.6-1.8c-1.4-1.2-2.1-3-2.1-5.2v-12l-2.3-0.4v-1.8h2.3H223.7z"/>
		<path class="st1" d="M247.3,16.1c2.7,0,4.9,0.8,6.6,2.5c1.7,1.7,2.5,3.9,2.5,6.5V28c0,2.7-0.8,4.9-2.5,6.5
			c-1.7,1.7-3.9,2.5-6.6,2.5h-8.8v-1.8l2.3-0.4V18.3l-2.3-0.4v-1.8h2.3H247.3z M243.7,18.3v16.5h3.6c1.9,0,3.5-0.6,4.6-1.9
			c1.1-1.3,1.7-2.9,1.7-4.9v-2.9c0-2-0.6-3.6-1.7-4.9c-1.1-1.3-2.6-1.9-4.6-1.9H243.7z"/>
		<path class="st1" d="M265.3,17.9l-2.3,0.3l4.4,8.6l4.4-8.6l-2.2-0.3v-1.8h7.2v1.8l-1.8,0.3l-6.2,11.5v5.2l2.3,0.4V37h-7.5v-1.8
			l2.3-0.4v-5.4l-6.1-11.3l-1.8-0.3v-1.8h7.2V17.9z"/>
	</g>
	<g>
		<path class="st2" d="M63,54.5C63,54.4,63,54.4,63,54.3v-9.4c0-0.1,0-0.2,0.1-0.3c0.1-0.1,0.1-0.1,0.2-0.1h5.9c0.1,0,0.2,0,0.3,0.1
			c0.1,0.1,0.1,0.1,0.1,0.3v0.5c0,0.1,0,0.2-0.1,0.2c-0.1,0.1-0.1,0.1-0.3,0.1h-4.9v3.2h4.6c0.1,0,0.2,0,0.3,0.1
			c0.1,0.1,0.1,0.1,0.1,0.3v0.5c0,0.1,0,0.2-0.1,0.2C69.1,50,69,50,68.9,50h-4.6v3.3h5c0.1,0,0.2,0,0.3,0.1c0.1,0.1,0.1,0.1,0.1,0.3
			v0.5c0,0.1,0,0.2-0.1,0.2c-0.1,0.1-0.1,0.1-0.2,0.1h-6.1C63.2,54.6,63.1,54.6,63,54.5z"/>
		<path class="st2" d="M71.9,53.8c-0.5-0.7-0.8-1.5-0.8-2.5l0-0.4l0-0.4c0-1,0.3-1.8,0.8-2.5c0.5-0.7,1.3-1,2.3-1
			c1,0,1.8,0.4,2.3,1.1v-3.3c0-0.1,0-0.2,0.1-0.2c0.1-0.1,0.1-0.1,0.2-0.1h0.7c0.1,0,0.2,0,0.2,0.1c0.1,0.1,0.1,0.1,0.1,0.2v9.6
			c0,0.1,0,0.2-0.1,0.2c-0.1,0.1-0.1,0.1-0.2,0.1h-0.6c-0.1,0-0.2,0-0.2-0.1c-0.1-0.1-0.1-0.1-0.1-0.2v-0.6
			c-0.5,0.7-1.3,1.1-2.4,1.1C73.2,54.7,72.4,54.4,71.9,53.8z M76,52.9c0.3-0.4,0.5-1,0.5-1.6c0-0.1,0-0.3,0-0.5c0-0.3,0-0.5,0-0.6
			c0-0.6-0.2-1.1-0.6-1.5c-0.4-0.4-0.9-0.6-1.5-0.6c-0.7,0-1.2,0.2-1.5,0.7c-0.3,0.4-0.5,1-0.5,1.7l0,0.4c0,1.9,0.7,2.8,2.1,2.8
			C75.1,53.6,75.6,53.4,76,52.9z"/>
		<path class="st2" d="M80.7,53.8c-0.5-0.6-0.8-1.4-0.8-2.4v-4.1c0-0.1,0-0.2,0.1-0.2c0.1-0.1,0.1-0.1,0.2-0.1H81
			c0.1,0,0.2,0,0.2,0.1c0.1,0.1,0.1,0.1,0.1,0.2v4c0,1.5,0.6,2.2,1.9,2.2c0.6,0,1.1-0.2,1.5-0.6c0.4-0.4,0.5-0.9,0.5-1.6v-4
			c0-0.1,0-0.2,0.1-0.2c0.1-0.1,0.1-0.1,0.2-0.1h0.7c0.1,0,0.2,0,0.2,0.1c0.1,0.1,0.1,0.1,0.1,0.2v6.9c0,0.1,0,0.2-0.1,0.2
			c-0.1,0.1-0.1,0.1-0.2,0.1h-0.6c-0.1,0-0.2,0-0.2-0.1c-0.1-0.1-0.1-0.1-0.1-0.2v-0.7c-0.3,0.4-0.6,0.7-1,0.8
			c-0.4,0.2-0.9,0.3-1.4,0.3C81.9,54.7,81.2,54.4,80.7,53.8z"/>
		<path class="st2" d="M89.3,53.9c-0.6-0.6-0.9-1.4-0.9-2.5l0-0.6l0-0.6c0-1.1,0.3-1.9,0.9-2.5c0.6-0.6,1.4-0.9,2.4-0.9
			c0.7,0,1.3,0.1,1.8,0.4c0.5,0.2,0.8,0.6,1.1,0.9c0.2,0.4,0.4,0.7,0.4,1.1c0,0.1,0,0.2-0.1,0.2c-0.1,0.1-0.2,0.1-0.2,0.1H94
			c-0.1,0-0.2,0-0.2-0.1c0,0-0.1-0.1-0.1-0.2c-0.2-0.5-0.4-0.8-0.7-1c-0.3-0.2-0.7-0.3-1.2-0.3c-0.6,0-1.1,0.2-1.4,0.6
			c-0.4,0.4-0.5,1-0.6,1.7l0,0.5l0,0.5c0,0.8,0.2,1.3,0.6,1.7c0.4,0.4,0.8,0.6,1.4,0.6c0.5,0,0.9-0.1,1.2-0.3c0.3-0.2,0.5-0.5,0.7-1
			c0-0.1,0.1-0.2,0.1-0.2c0,0,0.1-0.1,0.2-0.1h0.6c0.1,0,0.2,0,0.2,0.1c0.1,0.1,0.1,0.1,0.1,0.2c0,0.4-0.1,0.7-0.4,1.1
			c-0.2,0.4-0.6,0.7-1.1,0.9c-0.5,0.3-1.1,0.4-1.8,0.4C90.7,54.7,89.9,54.4,89.3,53.9z"/>
		<path class="st2" d="M97.4,54.4c-0.4-0.2-0.7-0.5-1-0.8c-0.2-0.3-0.4-0.7-0.4-1.1c0-0.6,0.3-1.2,0.8-1.6c0.5-0.4,1.2-0.7,2.1-0.8
			l2.2-0.3v-0.4c0-1-0.6-1.5-1.7-1.5c-0.4,0-0.8,0.1-1.1,0.3c-0.3,0.2-0.5,0.4-0.6,0.6c0,0.1-0.1,0.2-0.1,0.2c0,0-0.1,0.1-0.2,0.1
			H97c-0.1,0-0.2,0-0.2-0.1c-0.1-0.1-0.1-0.1-0.1-0.2c0-0.2,0.1-0.5,0.3-0.8c0.2-0.3,0.5-0.5,1-0.8c0.4-0.2,1-0.3,1.6-0.3
			c1.1,0,1.9,0.3,2.3,0.8s0.7,1.1,0.7,1.9v4.7c0,0.1,0,0.2-0.1,0.2c-0.1,0.1-0.1,0.1-0.2,0.1h-0.6c-0.1,0-0.2,0-0.2-0.1
			c-0.1-0.1-0.1-0.1-0.1-0.2v-0.6c-0.2,0.3-0.5,0.6-0.9,0.8c-0.4,0.2-0.9,0.3-1.6,0.3C98.3,54.7,97.8,54.6,97.4,54.4z M100.6,53.1
			c0.4-0.4,0.6-1,0.6-1.8v-0.4l-1.7,0.2c-0.7,0.1-1.2,0.3-1.6,0.5c-0.4,0.2-0.5,0.5-0.5,0.9c0,0.4,0.2,0.7,0.5,0.9
			c0.3,0.2,0.7,0.3,1.2,0.3C99.7,53.7,100.2,53.5,100.6,53.1z"/>
		<path class="st2" d="M105.2,52.1v-3.9h-1.1c-0.1,0-0.2,0-0.2-0.1c-0.1-0.1-0.1-0.1-0.1-0.2v-0.5c0-0.1,0-0.2,0.1-0.2
			c0.1-0.1,0.1-0.1,0.2-0.1h1.1v-2.4c0-0.1,0-0.2,0.1-0.2c0.1-0.1,0.1-0.1,0.2-0.1h0.6c0.1,0,0.2,0,0.2,0.1c0.1,0.1,0.1,0.1,0.1,0.2
			v2.4h1.8c0.1,0,0.2,0,0.2,0.1c0.1,0.1,0.1,0.1,0.1,0.2v0.5c0,0.1,0,0.2-0.1,0.2c-0.1,0.1-0.1,0.1-0.2,0.1h-1.8V52
			c0,0.5,0.1,0.9,0.2,1.1c0.2,0.3,0.4,0.4,0.8,0.4h0.9c0.1,0,0.2,0,0.2,0.1c0.1,0.1,0.1,0.1,0.1,0.2v0.5c0,0.1,0,0.2-0.1,0.2
			c-0.1,0.1-0.1,0.1-0.2,0.1h-1C106,54.6,105.2,53.7,105.2,52.1z"/>
		<path class="st2" d="M110.1,45.6c-0.1-0.1-0.1-0.1-0.1-0.2v-0.8c0-0.1,0-0.2,0.1-0.2c0.1-0.1,0.1-0.1,0.2-0.1h0.9
			c0.1,0,0.2,0,0.2,0.1c0.1,0.1,0.1,0.1,0.1,0.2v0.8c0,0.1,0,0.2-0.1,0.2c-0.1,0.1-0.1,0.1-0.2,0.1h-0.9
			C110.3,45.7,110.2,45.6,110.1,45.6z M110.3,54.5c-0.1-0.1-0.1-0.1-0.1-0.2v-6.9c0-0.1,0-0.2,0.1-0.2c0.1-0.1,0.1-0.1,0.2-0.1h0.6
			c0.1,0,0.2,0,0.2,0.1c0.1,0.1,0.1,0.1,0.1,0.2v6.9c0,0.1,0,0.2-0.1,0.2c-0.1,0.1-0.1,0.1-0.2,0.1h-0.6
			C110.4,54.6,110.3,54.6,110.3,54.5z"/>
		<path class="st2" d="M114.2,53.8c-0.6-0.6-0.9-1.4-0.9-2.4l0-0.6l0-0.6c0-1,0.3-1.8,0.9-2.4c0.6-0.6,1.4-0.9,2.4-0.9
			c1,0,1.9,0.3,2.4,0.9c0.6,0.6,0.9,1.4,0.9,2.4c0,0.2,0,0.4,0,0.6c0,0.2,0,0.4,0,0.6c0,1-0.3,1.8-0.9,2.4c-0.6,0.6-1.4,0.9-2.5,0.9
			C115.6,54.7,114.8,54.4,114.2,53.8z M118.2,53.1c0.4-0.4,0.6-1,0.6-1.7c0-0.1,0-0.3,0-0.5c0-0.3,0-0.5,0-0.5
			c0-0.7-0.2-1.3-0.6-1.7c-0.4-0.4-0.9-0.6-1.5-0.6c-0.6,0-1.1,0.2-1.5,0.6c-0.4,0.4-0.6,1-0.6,1.7l0,0.5l0,0.5
			c0,0.7,0.2,1.3,0.6,1.7c0.4,0.4,0.9,0.6,1.5,0.6C117.3,53.7,117.8,53.5,118.2,53.1z"/>
		<path class="st2" d="M122,54.5c-0.1-0.1-0.1-0.1-0.1-0.2v-6.9c0-0.1,0-0.2,0.1-0.2c0.1-0.1,0.1-0.1,0.2-0.1h0.6
			c0.1,0,0.2,0,0.2,0.1c0.1,0.1,0.1,0.1,0.1,0.2V48c0.3-0.4,0.6-0.6,1-0.8c0.4-0.2,0.9-0.3,1.4-0.3c0.9,0,1.6,0.3,2.2,0.9
			c0.5,0.6,0.8,1.4,0.8,2.4v4.1c0,0.1,0,0.2-0.1,0.2c-0.1,0.1-0.1,0.1-0.2,0.1h-0.7c-0.1,0-0.2,0-0.2-0.1c-0.1-0.1-0.1-0.1-0.1-0.2
			v-4c0-0.7-0.2-1.2-0.5-1.6c-0.3-0.4-0.8-0.6-1.4-0.6c-0.6,0-1.1,0.2-1.5,0.6c-0.4,0.4-0.5,0.9-0.5,1.6v4c0,0.1,0,0.2-0.1,0.2
			c-0.1,0.1-0.1,0.1-0.2,0.1h-0.7C122.2,54.6,122.1,54.6,122,54.5z"/>
		<path class="st2" d="M134.8,51.2c-0.3-0.3-0.5-0.7-0.5-1.1c0-0.4,0.2-0.8,0.5-1.1c0.3-0.3,0.7-0.5,1.1-0.5c0.4,0,0.8,0.2,1.1,0.5
			c0.3,0.3,0.4,0.7,0.4,1.1c0,0.4-0.1,0.8-0.4,1.1c-0.3,0.3-0.7,0.5-1.1,0.5C135.5,51.7,135.1,51.5,134.8,51.2z"/>
		<path class="st2" d="M143.6,54.5c-0.1-0.1-0.1-0.1-0.1-0.2v-9.4c0-0.1,0-0.2,0.1-0.3c0.1-0.1,0.1-0.1,0.2-0.1h0.7
			c0.1,0,0.2,0,0.3,0.1c0.1,0.1,0.1,0.1,0.1,0.3v3.6l3.9-3.7c0.2-0.2,0.3-0.2,0.6-0.2h0.7c0.1,0,0.1,0,0.2,0.1
			c0.1,0.1,0.1,0.1,0.1,0.2s0,0.1-0.1,0.2l-4.5,4.4l4.8,4.8c0,0.1,0.1,0.1,0.1,0.2c0,0.1,0,0.1-0.1,0.2c-0.1,0.1-0.1,0.1-0.2,0.1
			h-0.8c-0.1,0-0.2,0-0.3-0.1c-0.1,0-0.2-0.1-0.2-0.2l-4.2-4.1v4c0,0.1,0,0.2-0.1,0.2c-0.1,0.1-0.1,0.1-0.2,0.1h-0.7
			C143.7,54.6,143.6,54.6,143.6,54.5z"/>
		<path class="st2" d="M152,54.5c-0.1-0.1-0.1-0.1-0.1-0.2v-6.9c0-0.1,0-0.2,0.1-0.2c0.1-0.1,0.1-0.1,0.2-0.1h0.6
			c0.1,0,0.2,0,0.2,0.1c0.1,0.1,0.1,0.1,0.1,0.2V48c0.3-0.4,0.6-0.6,1-0.8c0.4-0.2,0.9-0.3,1.4-0.3c0.9,0,1.6,0.3,2.2,0.9
			c0.5,0.6,0.8,1.4,0.8,2.4v4.1c0,0.1,0,0.2-0.1,0.2c-0.1,0.1-0.1,0.1-0.2,0.1h-0.7c-0.1,0-0.2,0-0.2-0.1c-0.1-0.1-0.1-0.1-0.1-0.2
			v-4c0-0.7-0.2-1.2-0.5-1.6c-0.3-0.4-0.8-0.6-1.4-0.6c-0.6,0-1.1,0.2-1.5,0.6c-0.4,0.4-0.5,0.9-0.5,1.6v4c0,0.1,0,0.2-0.1,0.2
			c-0.1,0.1-0.1,0.1-0.2,0.1h-0.7C152.2,54.6,152.1,54.6,152,54.5z"/>
		<path class="st2" d="M161.3,53.8c-0.6-0.6-0.9-1.4-0.9-2.4l0-0.6l0-0.6c0-1,0.3-1.8,0.9-2.4c0.6-0.6,1.4-0.9,2.4-0.9
			c1,0,1.9,0.3,2.4,0.9c0.6,0.6,0.9,1.4,0.9,2.4c0,0.2,0,0.4,0,0.6c0,0.2,0,0.4,0,0.6c0,1-0.3,1.8-0.9,2.4c-0.6,0.6-1.4,0.9-2.5,0.9
			C162.7,54.7,161.9,54.4,161.3,53.8z M165.2,53.1c0.4-0.4,0.6-1,0.6-1.7c0-0.1,0-0.3,0-0.5c0-0.3,0-0.5,0-0.5
			c0-0.7-0.2-1.3-0.6-1.7c-0.4-0.4-0.9-0.6-1.5-0.6c-0.6,0-1.1,0.2-1.5,0.6c-0.4,0.4-0.6,1-0.6,1.7l0,0.5l0,0.5
			c0,0.7,0.2,1.3,0.6,1.7c0.4,0.4,0.9,0.6,1.5,0.6C164.3,53.7,164.8,53.5,165.2,53.1z"/>
		<path class="st2" d="M170.4,54.5c-0.1-0.1-0.1-0.1-0.2-0.3l-2.1-6.7l0-0.1c0-0.1,0-0.2,0.1-0.2c0.1-0.1,0.1-0.1,0.2-0.1h0.6
			c0.1,0,0.2,0,0.2,0.1c0.1,0.1,0.1,0.1,0.1,0.2l1.6,5.5l1.7-5.5c0-0.1,0.1-0.1,0.1-0.2c0.1-0.1,0.2-0.1,0.3-0.1h0.5
			c0.1,0,0.2,0,0.3,0.1c0.1,0.1,0.1,0.1,0.1,0.2l1.7,5.5l1.6-5.5c0,0,0-0.1,0.1-0.2c0.1-0.1,0.1-0.1,0.2-0.1h0.6
			c0.1,0,0.2,0,0.2,0.1c0.1,0.1,0.1,0.1,0.1,0.2l0,0.1l-2.1,6.7c0,0.1-0.1,0.2-0.2,0.3c-0.1,0.1-0.2,0.1-0.3,0.1h-0.5
			c-0.3,0-0.4-0.1-0.5-0.4l-1.7-5.2l-1.7,5.2c-0.1,0.2-0.2,0.4-0.5,0.4h-0.5C170.6,54.6,170.5,54.6,170.4,54.5z"/>
		<path class="st2" d="M180.4,54.5c-0.1-0.1-0.1-0.1-0.1-0.2v-9.6c0-0.1,0-0.2,0.1-0.2c0.1-0.1,0.1-0.1,0.2-0.1h0.6
			c0.1,0,0.2,0,0.2,0.1c0.1,0.1,0.1,0.1,0.1,0.2v9.6c0,0.1,0,0.2-0.1,0.2c-0.1,0.1-0.1,0.1-0.2,0.1h-0.6
			C180.6,54.6,180.5,54.6,180.4,54.5z"/>
		<path class="st2" d="M184.4,53.8c-0.6-0.6-0.9-1.4-1-2.5l0-0.5l0-0.5c0.1-1,0.4-1.9,1-2.5c0.6-0.6,1.4-0.9,2.4-0.9
			c1.1,0,1.9,0.3,2.5,1c0.6,0.7,0.9,1.6,0.9,2.7v0.3c0,0.1,0,0.2-0.1,0.2c-0.1,0.1-0.1,0.1-0.2,0.1h-5v0.1c0,0.6,0.2,1.2,0.6,1.6
			c0.4,0.4,0.8,0.7,1.4,0.7c0.5,0,0.8-0.1,1.1-0.3c0.3-0.2,0.5-0.4,0.6-0.6c0.1-0.1,0.2-0.2,0.2-0.2c0,0,0.1,0,0.2,0h0.6
			c0.1,0,0.2,0,0.2,0.1c0.1,0,0.1,0.1,0.1,0.2c0,0.2-0.1,0.5-0.4,0.8c-0.3,0.3-0.6,0.6-1.1,0.8c-0.5,0.2-1,0.3-1.6,0.3
			C185.8,54.7,185,54.4,184.4,53.8z M188.8,50.3L188.8,50.3c0-0.7-0.2-1.3-0.5-1.7c-0.4-0.4-0.9-0.6-1.5-0.6c-0.6,0-1.1,0.2-1.5,0.6
			c-0.4,0.4-0.5,1-0.5,1.6v0H188.8z"/>
		<path class="st2" d="M192.4,53.8c-0.5-0.7-0.8-1.5-0.8-2.5l0-0.4l0-0.4c0-1,0.3-1.8,0.8-2.5c0.5-0.7,1.3-1,2.3-1
			c1,0,1.8,0.4,2.3,1.1v-3.3c0-0.1,0-0.2,0.1-0.2c0.1-0.1,0.1-0.1,0.2-0.1h0.7c0.1,0,0.2,0,0.2,0.1c0.1,0.1,0.1,0.1,0.1,0.2v9.6
			c0,0.1,0,0.2-0.1,0.2c-0.1,0.1-0.1,0.1-0.2,0.1h-0.6c-0.1,0-0.2,0-0.2-0.1c-0.1-0.1-0.1-0.1-0.1-0.2v-0.6
			c-0.5,0.7-1.3,1.1-2.4,1.1C193.6,54.7,192.9,54.4,192.4,53.8z M196.4,52.9c0.3-0.4,0.5-1,0.5-1.6c0-0.1,0-0.3,0-0.5
			c0-0.3,0-0.5,0-0.6c0-0.6-0.2-1.1-0.6-1.5c-0.4-0.4-0.9-0.6-1.5-0.6c-0.7,0-1.2,0.2-1.5,0.7c-0.3,0.4-0.5,1-0.5,1.7l0,0.4
			c0,1.9,0.7,2.8,2.1,2.8C195.6,53.6,196.1,53.4,196.4,52.9z"/>
		<path class="st2" d="M201.6,57.4c-0.5-0.3-0.8-0.6-1-0.9c-0.2-0.3-0.3-0.6-0.3-0.9c0-0.1,0-0.2,0.1-0.2c0.1-0.1,0.1-0.1,0.2-0.1
			h0.6c0.1,0,0.2,0,0.2,0.1c0.1,0,0.1,0.1,0.1,0.2c0.3,0.8,0.9,1.2,1.8,1.2c0.7,0,1.3-0.2,1.6-0.5c0.3-0.3,0.5-0.9,0.5-1.6v-1
			c-0.6,0.7-1.3,1.1-2.3,1.1c-1,0-1.8-0.3-2.3-1c-0.5-0.7-0.8-1.5-0.8-2.5l0-0.4l0-0.4c0-1,0.3-1.8,0.8-2.5c0.5-0.7,1.3-1,2.3-1
			c1,0,1.8,0.4,2.4,1.1v-0.6c0-0.1,0-0.2,0.1-0.2c0.1-0.1,0.1-0.1,0.2-0.1h0.6c0.1,0,0.2,0,0.2,0.1c0.1,0.1,0.1,0.1,0.1,0.2v7
			c0,2.2-1.1,3.3-3.4,3.3C202.7,57.8,202.1,57.6,201.6,57.4z M205,52.9c0.3-0.4,0.5-1,0.6-1.6c0-0.1,0-0.3,0-0.5c0-0.2,0-0.4,0-0.5
			c0-0.6-0.2-1.1-0.6-1.6c-0.3-0.4-0.9-0.7-1.5-0.7c-0.7,0-1.2,0.2-1.5,0.7c-0.3,0.4-0.5,1-0.5,1.7l0,0.4l0,0.4
			c0,0.7,0.2,1.3,0.5,1.7c0.3,0.4,0.8,0.7,1.5,0.7C204.2,53.5,204.7,53.3,205,52.9z"/>
		<path class="st2" d="M209.7,53.8c-0.6-0.6-0.9-1.4-1-2.5l0-0.5l0-0.5c0.1-1,0.4-1.9,1-2.5c0.6-0.6,1.4-0.9,2.4-0.9
			c1.1,0,1.9,0.3,2.5,1c0.6,0.7,0.9,1.6,0.9,2.7v0.3c0,0.1,0,0.2-0.1,0.2c-0.1,0.1-0.1,0.1-0.2,0.1h-5v0.1c0,0.6,0.2,1.2,0.6,1.6
			c0.4,0.4,0.8,0.7,1.4,0.7c0.5,0,0.8-0.1,1.1-0.3c0.3-0.2,0.5-0.4,0.6-0.6c0.1-0.1,0.2-0.2,0.2-0.2c0,0,0.1,0,0.2,0h0.6
			c0.1,0,0.2,0,0.2,0.1c0.1,0,0.1,0.1,0.1,0.2c0,0.2-0.1,0.5-0.4,0.8c-0.3,0.3-0.6,0.6-1.1,0.8c-0.5,0.2-1,0.3-1.6,0.3
			C211.1,54.7,210.3,54.4,209.7,53.8z M214.1,50.3L214.1,50.3c0-0.7-0.2-1.3-0.5-1.7c-0.4-0.4-0.9-0.6-1.5-0.6
			c-0.6,0-1.1,0.2-1.5,0.6c-0.4,0.4-0.5,1-0.5,1.6v0H214.1z"/>
		<path class="st2" d="M221.3,51.2c-0.3-0.3-0.5-0.7-0.5-1.1c0-0.4,0.2-0.8,0.5-1.1c0.3-0.3,0.7-0.5,1.1-0.5c0.4,0,0.8,0.2,1.1,0.5
			c0.3,0.3,0.4,0.7,0.4,1.1c0,0.4-0.1,0.8-0.4,1.1c-0.3,0.3-0.7,0.5-1.1,0.5C222,51.7,221.6,51.5,221.3,51.2z"/>
		<path class="st2" d="M230.7,53.7c-0.7-0.7-1-1.7-1.1-2.9c0-0.3,0-0.7,0-1.3c0-0.6,0-1,0-1.3c0-1.2,0.4-2.2,1.1-2.9
			c0.7-0.7,1.6-1,2.9-1c0.9,0,1.6,0.2,2.2,0.5c0.6,0.3,1,0.7,1.4,1.2c0.3,0.5,0.5,1,0.5,1.6c0,0.1,0,0.2-0.1,0.2
			c-0.1,0.1-0.1,0.1-0.2,0.1h-0.7c-0.1,0-0.2,0-0.2-0.1c-0.1,0-0.1-0.1-0.1-0.2c-0.2-0.7-0.5-1.3-0.9-1.6c-0.4-0.3-1-0.4-1.7-0.4
			c-1.7,0-2.6,0.9-2.6,2.8c0,0.3,0,0.7,0,1.2c0,0.5,0,1,0,1.2c0.1,1.9,0.9,2.8,2.6,2.8c0.7,0,1.3-0.1,1.7-0.4
			c0.4-0.3,0.7-0.8,0.9-1.5c0-0.1,0.1-0.2,0.1-0.2c0.1,0,0.1-0.1,0.2-0.1h0.7c0.1,0,0.2,0,0.2,0.1c0.1,0.1,0.1,0.1,0.1,0.2
			c0,0.6-0.2,1.1-0.5,1.6c-0.3,0.5-0.8,0.9-1.4,1.2c-0.6,0.3-1.3,0.5-2.2,0.5C232.3,54.7,231.4,54.4,230.7,53.7z"/>
		<path class="st2" d="M240.2,54.4c-0.4-0.2-0.7-0.5-1-0.8c-0.2-0.3-0.4-0.7-0.4-1.1c0-0.6,0.3-1.2,0.8-1.6c0.5-0.4,1.2-0.7,2.1-0.8
			l2.2-0.3v-0.4c0-1-0.6-1.5-1.7-1.5c-0.4,0-0.8,0.1-1.1,0.3c-0.3,0.2-0.5,0.4-0.6,0.6c0,0.1-0.1,0.2-0.1,0.2c0,0-0.1,0.1-0.2,0.1
			h-0.6c-0.1,0-0.2,0-0.2-0.1c-0.1-0.1-0.1-0.1-0.1-0.2c0-0.2,0.1-0.5,0.3-0.8c0.2-0.3,0.5-0.5,1-0.8c0.4-0.2,1-0.3,1.6-0.3
			c1.1,0,1.9,0.3,2.3,0.8c0.5,0.5,0.7,1.1,0.7,1.9v4.7c0,0.1,0,0.2-0.1,0.2c-0.1,0.1-0.1,0.1-0.2,0.1h-0.6c-0.1,0-0.2,0-0.2-0.1
			c-0.1-0.1-0.1-0.1-0.1-0.2v-0.6c-0.2,0.3-0.5,0.6-0.9,0.8c-0.4,0.2-0.9,0.3-1.6,0.3C241.1,54.7,240.6,54.6,240.2,54.4z
			 M243.4,53.1c0.4-0.4,0.6-1,0.6-1.8v-0.4l-1.7,0.2c-0.7,0.1-1.2,0.3-1.6,0.5c-0.4,0.2-0.5,0.5-0.5,0.9c0,0.4,0.2,0.7,0.5,0.9
			c0.3,0.2,0.7,0.3,1.2,0.3C242.5,53.7,243,53.5,243.4,53.1z"/>
		<path class="st2" d="M247.5,54.5c-0.1-0.1-0.1-0.1-0.1-0.2v-6.8c0-0.1,0-0.2,0.1-0.2c0.1-0.1,0.1-0.1,0.2-0.1h0.6
			c0.1,0,0.2,0,0.3,0.1c0.1,0.1,0.1,0.1,0.1,0.3v0.6c0.4-0.7,1.1-1,2-1h0.6c0.1,0,0.2,0,0.2,0.1c0.1,0.1,0.1,0.1,0.1,0.2v0.5
			c0,0.1,0,0.2-0.1,0.2c-0.1,0.1-0.1,0.1-0.2,0.1h-0.8c-0.5,0-0.9,0.2-1.3,0.5c-0.3,0.3-0.5,0.7-0.5,1.3v4.3c0,0.1,0,0.2-0.1,0.2
			c-0.1,0.1-0.1,0.1-0.2,0.1h-0.7C247.6,54.6,247.6,54.6,247.5,54.5z"/>
		<path class="st2" d="M253.3,53.8c-0.6-0.6-0.9-1.4-1-2.5l0-0.5l0-0.5c0.1-1,0.4-1.9,1-2.5c0.6-0.6,1.4-0.9,2.4-0.9
			c1.1,0,1.9,0.3,2.5,1c0.6,0.7,0.9,1.6,0.9,2.7v0.3c0,0.1,0,0.2-0.1,0.2c-0.1,0.1-0.1,0.1-0.2,0.1h-5v0.1c0,0.6,0.2,1.2,0.6,1.6
			c0.4,0.4,0.8,0.7,1.4,0.7c0.5,0,0.8-0.1,1.1-0.3c0.3-0.2,0.5-0.4,0.6-0.6c0.1-0.1,0.2-0.2,0.2-0.2c0,0,0.1,0,0.2,0h0.6
			c0.1,0,0.2,0,0.2,0.1c0.1,0,0.1,0.1,0.1,0.2c0,0.2-0.1,0.5-0.4,0.8c-0.3,0.3-0.6,0.6-1.1,0.8c-0.5,0.2-1,0.3-1.6,0.3
			C254.7,54.7,253.9,54.4,253.3,53.8z M257.7,50.3L257.7,50.3c0-0.7-0.2-1.3-0.5-1.7c-0.4-0.4-0.9-0.6-1.5-0.6
			c-0.6,0-1.1,0.2-1.5,0.6c-0.4,0.4-0.5,1-0.5,1.6v0H257.7z"/>
		<path class="st2" d="M261.4,53.8c-0.6-0.6-0.9-1.4-1-2.5l0-0.5l0-0.5c0.1-1,0.4-1.9,1-2.5c0.6-0.6,1.4-0.9,2.4-0.9
			c1.1,0,1.9,0.3,2.5,1c0.6,0.7,0.9,1.6,0.9,2.7v0.3c0,0.1,0,0.2-0.1,0.2c-0.1,0.1-0.1,0.1-0.2,0.1h-5v0.1c0,0.6,0.2,1.2,0.6,1.6
			c0.4,0.4,0.8,0.7,1.4,0.7c0.5,0,0.8-0.1,1.1-0.3c0.3-0.2,0.5-0.4,0.6-0.6c0.1-0.1,0.2-0.2,0.2-0.2c0,0,0.1,0,0.2,0h0.6
			c0.1,0,0.2,0,0.2,0.1c0.1,0,0.1,0.1,0.1,0.2c0,0.2-0.1,0.5-0.4,0.8c-0.3,0.3-0.6,0.6-1.1,0.8c-0.5,0.2-1,0.3-1.6,0.3
			C262.8,54.7,262,54.4,261.4,53.8z M265.8,50.3L265.8,50.3c0-0.7-0.2-1.3-0.5-1.7c-0.4-0.4-0.9-0.6-1.5-0.6c-0.6,0-1.1,0.2-1.5,0.6
			c-0.4,0.4-0.5,1-0.5,1.6v0H265.8z"/>
		<path class="st2" d="M269,54.5c-0.1-0.1-0.1-0.1-0.1-0.2v-6.8c0-0.1,0-0.2,0.1-0.2c0.1-0.1,0.1-0.1,0.2-0.1h0.6
			c0.1,0,0.2,0,0.3,0.1c0.1,0.1,0.1,0.1,0.1,0.3v0.6c0.4-0.7,1.1-1,2-1h0.6c0.1,0,0.2,0,0.2,0.1c0.1,0.1,0.1,0.1,0.1,0.2v0.5
			c0,0.1,0,0.2-0.1,0.2c-0.1,0.1-0.1,0.1-0.2,0.1h-0.8c-0.5,0-0.9,0.2-1.3,0.5c-0.3,0.3-0.5,0.7-0.5,1.3v4.3c0,0.1,0,0.2-0.1,0.2
			c-0.1,0.1-0.1,0.1-0.2,0.1h-0.7C269.1,54.6,269,54.6,269,54.5z"/>
	</g>
	<g>
		<polygon class="st3" points="23.9,48.6 23.7,49.8 24.1,52.1 25.2,51.3 25.5,50.7 26,49.6 25.5,51 26.7,53.9 27.8,54.6 27.8,53.5 
			28.5,51 29.2,49.7 29.2,51.7 29.6,52.8 30.3,51 30.3,49.1 30.3,48.4 24.4,48.4 		"/>
		<path class="st4" d="M28.6,52c-0.1,0.4-0.2,0.9-0.2,1.3c0,0.6,0.1,1.2,0.1,1.8c0.1,1,0,1.9-0.7,2.7c-0.2,0.2-0.4,0.4-0.7,0.7
			c-0.1-1.1-0.7-1.8-1.2-2.7c-0.5-1-0.9-2.1-0.7-3.2c0-0.1,0-0.3,0.1-0.4c0,0-0.1,0-0.1,0c-0.1,0.3-0.2,0.6-0.3,1
			c-0.1,0.3-0.1,0.7-0.1,1c-0.1,0.4-0.2,0.7-0.5,0.9c-0.3-1.4-0.6-2.8-0.9-4.2c-0.2-1,0-2.1,0.7-3c-0.5,1.3-0.2,2.4,0.3,3.6
			c0.3-0.9,0.8-1.6,1.7-2.1c-0.7,1.9,0.3,3.1,1.3,4.4c0-1.7,0.7-3.1,1.9-4.3c0.1,0.7,0.2,1.4,0.3,2.1c0.8-1.3,0.6-2.5,0.4-3.8
			c0.1,0.1,0.1,0.3,0.2,0.4c0.6,1.4,0.5,2.8,0.1,4.3c-0.1,0.5-0.3,1-0.5,1.5c-0.1,0.4-0.2,0.8-0.3,1.2c-0.8-0.8-1.2-1.8-0.8-3
			C28.7,52.1,28.6,52.1,28.6,52z"/>
		<path class="st5" d="M29.8,16.7c0-1.5-1.2-2.7-2.7-2.7c-1.5,0-2.7,1.2-2.7,2.7c0,1.5,1.2,2.7,2.7,2.7
			C28.5,19.4,29.8,18.2,29.8,16.7L29.8,16.7z"/>
		<path class="st5" d="M39.8,36.5l-1.1-0.6V31c0-1.3-1-2.4-2.2-2.5l0,8.1c0,0.4,0.2,0.8,0.6,1l1.7,0.9c2.2,1.1,3.2,1.8,3.2,2.3v3.1
			h-7.3c-0.3,0-0.6,0.1-0.8,0.3c0,0-2.6,2.5-6.9,2.5c-4.3,0-6.8-2.4-6.9-2.5c-0.2-0.2-0.5-0.3-0.8-0.3H12v-3.1
			c0-0.5,1.1-1.3,3.3-2.3l1.7-0.9c0.4-0.2,0.6-0.6,0.6-1l0-8.1c-1.3,0.1-2.2,1.2-2.2,2.5v4.9l-1.1,0.6c-1.8,0.9-4.5,2.2-4.5,4.3v4.2
			c0,0.6,0.5,1.1,1.1,1.1h8c0.9,0.8,3.8,2.8,8.1,2.8c4.4,0,7.2-2,8.1-2.8h8c0.6,0,1.1-0.5,1.1-1.1v-4.2
			C44.3,38.7,41.6,37.4,39.8,36.5z"/>
		<path class="st6" d="M29.7,60.3c0-3.4,5-8.7,19.7-9.2V18.8c-3,0-18.7,0.8-20.4,6.5c-0.1,0.5,0,0.7,0,0.7l1.8,10
			c0,0.2,0,0.4-0.2,0.6l-2.9,4.2c-0.1,0.1-0.3,0.2-0.4,0.2c-0.2,0-0.3-0.1-0.4-0.2l-3-4.2c-0.1-0.1-0.2-0.4-0.2-0.6l1.8-10l0.1-0.7
			c0.8-2.2,4-9.2,23.8-9.2c0.9,0,1.9,0,2.7,0v37.7c0,0-1.1,0-2.7,0C44.7,53.8,35.4,54.8,29.7,60.3z"/>
		<path class="st7" d="M23.9,32.3l-0.3,1.2l2.1,3.2c0.1,0.1,0.2,0.2,0.4,0.2c0.1,0,0.2,0,0.2-0.1c0.2-0.1,0.3-0.4,0.1-0.6L23.9,32.3
			z"/>
		<path class="st7" d="M24.4,29.9C24.4,29.9,24.4,29.9,24.4,29.9l-0.3,1.2l1.9,2.8c0.1,0.1,0.2,0.2,0.4,0.2c0.1,0,0.2,0,0.2-0.1
			c0.2-0.1,0.3-0.4,0.1-0.6L24.4,29.9z"/>
		<path class="st7" d="M27.4,30.8L25,27.3c0,0,0,0,0,0l-0.3,1.2l1.9,2.8c0.1,0.1,0.2,0.2,0.4,0.2c0.1,0,0.2,0,0.2-0.1
			C27.5,31.3,27.5,31,27.4,30.8z"/>
		<path class="st8" d="M25.6,60.6c-5.7-5.5-15.1-6.5-19.7-6.5c-1.7,0-2.7,0-2.7,0V16.3c0.9,0,1.9,0,2.7,0l0,0
			c13.1,0.6,17.8,5.7,17.8,9.1C18.6,20,10,19.1,5.9,19.1c-0.1,0,0.1,0,0,0v32.2C20.6,51.9,25.6,57.1,25.6,60.6z"/>
		<path class="st8" d="M34.3,38c0,0.6-0.5,1.1-1.1,1.1c-0.6,0-1.1-0.5-1.1-1.1V24.1l2.2-1.3V38z"/>
		<path class="st8" d="M19.7,38c0,0.6,0.5,1.1,1.1,1.1c0.6,0,1.1-0.5,1.1-1.1V25.8l-2.2-1.3V38z"/>
		<g>
			<path class="st5" d="M34.3,16.6c0-1.7-0.6-4.5-2.1-6.6c-2.1-3.1-5.2-5.4-5.2-5.4s-3.1,2.1-5.2,5.2c-2.7,4-2.1,7.8-2.1,7.8
				c1.4,0.8,2,1.3,2.1,1.4c0,0-0.3-5.1,1.5-7.8c0.2-0.3,0.5-0.7,0.7-1c1.9,0.7,4,0.8,5.8-0.1c0.3,0.4,0.6,0.7,0.8,1.1
				c1,1.6,1.5,4.6,1.5,5.8v0.2C32.9,17.1,33.6,16.8,34.3,16.6z M24.8,9.4C26,8,27.1,7,27.1,7s1,1,2.1,2.3
				C27.1,10.2,24.8,9.4,24.8,9.4z"/>
		</g>
	</g>
</g>
</svg>
